<svg xmlns="http://www.w3.org/2000/svg" width="149" height="157" viewBox="0 0 149 157">
<g>
<path d="M 65.46 151.21 C51.22,143.79 39.26,135.25 29.47,125.50 C18.38,114.46 16.79,112.51 12.36,104.45 C8.23,96.93 5.42,89.80 3.33,81.50 C1.18,72.96 0.19,21.13 2.15,19.88 C2.89,19.41 6.07,19.02 9.22,19.02 C20.90,18.98 46.78,12.55 65.85,4.93 L 75.20 1.20 L 80.85 3.72 C92.23,8.81 106.55,13.11 125.00,16.97 C128.02,17.60 134.47,18.39 139.33,18.71 L 148.15 19.31 L 147.72 48.90 C147.25,80.64 146.91,83.11 140.99,97.00 C131.92,118.29 111.18,137.80 82.04,152.48 C78.20,154.42 74.93,155.98 74.77,155.96 C74.62,155.94 70.43,153.80 65.46,151.21 ZM 75.00 78.39 C75.00,114.48 75.24,144.00 75.54,144.00 C76.45,144.00 88.99,137.07 94.92,133.28 C112.12,122.32 126.56,105.54 132.86,89.21 C137.12,78.16 137.98,71.37 137.99,48.89 L 138.00 29.28 L 128.75 28.07 C112.78,25.98 92.31,20.26 76.75,13.54 C75.09,12.83 75.00,16.29 75.00,78.39 ZM 53.00 110.28 C54.38,110.52 57.19,110.79 59.25,110.86 L 63.00 111.00 L 63.00 106.50 C63.00,102.37 62.80,102.00 60.50,102.00 C56.41,102.00 54.00,98.72 54.00,93.14 C54.00,83.97 52.28,77.75 48.89,74.67 L 45.78 71.83 L 48.96 69.17 C51.99,66.62 52.19,65.99 53.35,55.51 C54.46,45.42 54.76,44.43 57.03,43.28 C58.39,42.59 60.29,42.02 61.25,42.01 C62.62,42.00 63.00,41.14 63.00,38.00 L 63.00 34.00 L 57.55 34.00 C46.35,34.00 43.85,37.11 43.06,52.00 C42.75,57.78 42.11,63.11 41.63,63.85 C41.15,64.60 39.24,65.84 37.38,66.62 C34.33,67.89 34.00,68.42 34.00,72.06 C34.00,75.69 34.34,76.24 37.31,77.48 C41.69,79.32 43.00,82.56 43.00,91.58 C43.00,102.37 46.61,109.12 53.00,110.28 Z" fill="rgba(14,40,67,1)"/>
<path d="M 75.00 78.39 C75.00,16.29 75.09,12.83 76.75,13.54 C92.31,20.26 112.78,25.98 128.75,28.07 L 138.00 29.28 L 137.99 48.89 C137.98,71.37 137.12,78.16 132.86,89.21 C126.56,105.54 112.12,122.32 94.92,133.28 C88.99,137.07 76.45,144.00 75.54,144.00 C75.24,144.00 75.00,114.48 75.00,78.39 ZM 87.00 106.82 L 87.00 111.28 L 92.87 110.75 C103.72,109.76 107.00,105.43 107.00,92.08 C107.00,82.56 108.26,79.34 112.69,77.48 C115.67,76.24 116.00,75.69 116.00,72.03 C116.00,68.72 115.57,67.79 113.75,67.09 C108.78,65.19 107.61,62.52 107.01,51.67 C106.57,43.71 106.01,40.87 104.47,38.77 C102.05,35.47 96.28,33.00 90.98,33.00 L 87.00 33.00 L 87.00 37.50 C87.00,41.63 87.20,42.00 89.50,42.00 C93.67,42.00 95.99,45.27 96.06,51.25 C96.17,61.41 97.48,66.20 100.92,69.07 L 104.08 71.72 L 100.54 75.26 C97.14,78.66 97.00,79.10 96.94,86.15 C96.86,96.73 95.43,100.27 90.75,101.43 C87.12,102.32 87.00,102.49 87.00,106.82 Z" fill="rgba(123,52,215,1)"/>
<path d="M 53.00 110.28 C46.61,109.12 43.00,102.37 43.00,91.58 C43.00,82.56 41.69,79.32 37.31,77.48 C34.34,76.24 34.00,75.69 34.00,72.06 C34.00,68.42 34.33,67.89 37.38,66.62 C39.24,65.84 41.15,64.60 41.63,63.85 C42.11,63.11 42.75,57.78 43.06,52.00 C43.85,37.11 46.35,34.00 57.55,34.00 L 63.00 34.00 L 63.00 38.00 C63.00,41.14 62.62,42.00 61.25,42.01 C60.29,42.02 58.39,42.59 57.03,43.28 C54.76,44.43 54.46,45.42 53.35,55.51 C52.19,65.99 51.99,66.62 48.96,69.17 L 45.78 71.83 L 48.89 74.67 C52.28,77.75 54.00,83.97 54.00,93.14 C54.00,98.72 56.41,102.00 60.50,102.00 C62.80,102.00 63.00,102.37 63.00,106.50 L 63.00 111.00 L 59.25 110.86 C57.19,110.79 54.38,110.52 53.00,110.28 ZM 87.00 106.82 C87.00,102.49 87.12,102.32 90.75,101.43 C95.43,100.27 96.86,96.73 96.94,86.15 C97.00,79.10 97.14,78.66 100.54,75.26 L 104.08 71.72 L 100.92 69.07 C97.48,66.20 96.17,61.41 96.06,51.25 C95.99,45.27 93.67,42.00 89.50,42.00 C87.20,42.00 87.00,41.63 87.00,37.50 L 87.00 33.00 L 90.98 33.00 C96.28,33.00 102.05,35.47 104.47,38.77 C106.01,40.87 106.57,43.71 107.01,51.67 C107.61,62.52 108.78,65.19 113.75,67.09 C115.57,67.79 116.00,68.72 116.00,72.03 C116.00,75.69 115.67,76.24 112.69,77.48 C108.26,79.34 107.00,82.56 107.00,92.08 C107.00,105.43 103.72,109.76 92.87,110.75 L 87.00 111.28 L 87.00 106.82 Z" fill="rgba(221,220,217,1)"/>
</g>
</svg>