<svg width="26" height="27" viewBox="0 0 26 27" fill="none" xmlns="http://www.w3.org/2000/svg">
<path d="M25.7495 19.1558L18.4062 26.5122L14.8599 22.9526L16.0464 21.7661L18.4062 24.1128L24.563 17.9692L25.7495 19.1558ZM12.5 8.4375H7.4375V6.75H12.5V8.4375ZM12.5 11.8125H7.4375V10.125H12.5V11.8125ZM7.4375 13.5H12.5V15.1875H7.4375V13.5ZM5.75 8.4375H4.0625V6.75H5.75V8.4375ZM5.75 11.8125H4.0625V10.125H5.75V11.8125ZM4.0625 13.5H5.75V15.1875H4.0625V13.5ZM14.1875 8.4375V1.6875H2.375V25.3125H14.1875V27H0.6875V0H15.3872L22.625 7.23779V16.875L20.9375 18.5625V8.4375H14.1875ZM15.875 6.75H19.7378L15.875 2.88721V6.75Z" fill="CurrentColor"/>
</svg>
