<svg width="18" height="25" viewBox="0 0 18 25" fill="none" xmlns="http://www.w3.org/2000/svg">
<path d="M9.04482 3.5931V0.258423L4.59858 4.70466L9.04482 9.1509V5.81622C12.7241 5.81622 15.7142 8.80631 15.7142 12.4856C15.7142 13.6082 15.4363 14.6753 14.9361 15.5979L16.559 17.2208C17.4596 15.8057 17.9378 14.163 17.9373 12.4856C17.9373 7.57248 13.9579 3.5931 9.04482 3.5931ZM9.04482 19.1549C5.36556 19.1549 2.37546 16.1648 2.37546 12.4856C2.37546 11.3629 2.65335 10.2958 3.15355 9.37321L1.53068 7.75033C0.630039 9.16545 0.151877 10.8082 0.152344 12.4856C0.152344 17.3987 4.13173 21.378 9.04482 21.378V24.7127L13.4911 20.2665L9.04482 15.8202V19.1549Z" fill="CurrentColor"/>
</svg>
