<svg width="24" height="25" viewBox="0 0 24 25" fill="none" xmlns="http://www.w3.org/2000/svg">
<path d="M22.0458 13.2975C21.8521 13.077 21.7452 12.7935 21.7452 12.5C21.7452 12.2065 21.8521 11.923 22.0458 11.7025L23.5925 9.9625C23.7629 9.77239 23.8687 9.53318 23.8948 9.2792C23.9208 9.02521 23.8657 8.7695 23.7375 8.54875L21.3208 4.36792C21.1938 4.14742 21.0004 3.97264 20.7683 3.8685C20.5361 3.76435 20.277 3.73615 20.0279 3.78792L17.7562 4.24708C17.4671 4.30681 17.1662 4.25867 16.9102 4.11175C16.6542 3.96483 16.4609 3.72929 16.3666 3.44958L15.6295 1.23833C15.5485 0.998333 15.394 0.789879 15.188 0.642434C14.9821 0.49499 14.7349 0.416013 14.4816 0.416667H9.64829C9.38479 0.402914 9.12403 0.475786 8.90585 0.624155C8.68766 0.772523 8.52403 0.988232 8.43996 1.23833L7.76329 3.44958C7.66904 3.72929 7.47567 3.96483 7.21968 4.11175C6.96368 4.25867 6.66276 4.30681 6.37371 4.24708L4.04162 3.78792C3.80545 3.75454 3.56469 3.79181 3.34967 3.89502C3.13464 3.99824 2.95497 4.16278 2.83329 4.36792L0.416623 8.54875C0.285108 8.76704 0.225974 9.02131 0.247677 9.27523C0.269379 9.52915 0.370805 9.7697 0.537456 9.9625L2.07204 11.7025C2.26576 11.923 2.37259 12.2065 2.37259 12.5C2.37259 12.7935 2.26576 13.077 2.07204 13.2975L0.537456 15.0375C0.370805 15.2303 0.269379 15.4709 0.247677 15.7248C0.225974 15.9787 0.285108 16.233 0.416623 16.4513L2.83329 20.6321C2.96028 20.8526 3.15364 21.0274 3.3858 21.1315C3.61796 21.2357 3.87708 21.2639 4.12621 21.2121L6.39787 20.7529C6.68693 20.6932 6.98785 20.7413 7.24384 20.8883C7.49984 21.0352 7.69321 21.2707 7.78746 21.5504L8.52454 23.7617C8.60861 24.0118 8.77224 24.2275 8.99043 24.3758C9.20862 24.5242 9.46938 24.5971 9.73287 24.5833H14.5662C14.8195 24.584 15.0666 24.505 15.2726 24.3576C15.4786 24.2101 15.6331 24.0017 15.7141 23.7617L16.4512 21.5504C16.5455 21.2707 16.7388 21.0352 16.9948 20.8883C17.2508 20.7413 17.5517 20.6932 17.8408 20.7529L20.1125 21.2121C20.3616 21.2639 20.6207 21.2357 20.8529 21.1315C21.085 21.0274 21.2784 20.8526 21.4054 20.6321L23.822 16.4513C23.9503 16.2305 24.0054 15.9748 23.9794 15.7208C23.9533 15.4668 23.8475 15.2276 23.677 15.0375L22.0458 13.2975ZM20.2454 14.9167L21.212 16.0042L19.6654 18.6867L18.2395 18.3967C17.3693 18.2188 16.464 18.3666 15.6955 18.8121C14.927 19.2576 14.3489 19.9697 14.0708 20.8133L13.6116 22.1667H10.5183L10.0833 20.7892C9.8052 19.9456 9.22704 19.2334 8.45857 18.7879C7.6901 18.3424 6.78481 18.1946 5.91454 18.3725L4.48871 18.6625L2.91787 15.9921L3.88454 14.9046C4.47898 14.24 4.80762 13.3796 4.80762 12.4879C4.80762 11.5962 4.47898 10.7359 3.88454 10.0712L2.91787 8.98375L4.46454 6.32542L5.89037 6.61542C6.76064 6.79331 7.66593 6.64548 8.4344 6.19999C9.20287 5.7545 9.78103 5.04236 10.0591 4.19875L10.5183 2.83333H13.6116L14.0708 4.21083C14.3489 5.05444 14.927 5.76658 15.6955 6.21207C16.464 6.65756 17.3693 6.80539 18.2395 6.6275L19.6654 6.3375L21.212 9.02L20.2454 10.1075C19.6576 10.7706 19.333 11.626 19.333 12.5121C19.333 13.3982 19.6576 14.2536 20.2454 14.9167ZM12.065 7.66667C11.109 7.66667 10.1745 7.95014 9.3797 8.48123C8.58486 9.01232 7.96536 9.76719 7.59954 10.6504C7.23371 11.5335 7.138 12.5054 7.32449 13.4429C7.51099 14.3805 7.97132 15.2417 8.64727 15.9177C9.32323 16.5936 10.1844 17.054 11.122 17.2405C12.0596 17.427 13.0314 17.3312 13.9146 16.9654C14.7978 16.5996 15.5526 15.9801 16.0837 15.1853C16.6148 14.3904 16.8983 13.4559 16.8983 12.5C16.8983 11.2181 16.3891 9.98874 15.4826 9.08232C14.5762 8.17589 13.3468 7.66667 12.065 7.66667ZM12.065 14.9167C11.587 14.9167 11.1197 14.7749 10.7223 14.5094C10.3249 14.2438 10.0152 13.8664 9.83225 13.4248C9.64933 12.9832 9.60148 12.4973 9.69472 12.0285C9.78797 11.5597 10.0181 11.1291 10.3561 10.7912C10.6941 10.4532 11.1247 10.223 11.5935 10.1298C12.0623 10.0365 12.5482 10.0844 12.9898 10.2673C13.4314 10.4502 13.8088 10.76 14.0743 11.1574C14.3399 11.5548 14.4816 12.022 14.4816 12.5C14.4816 13.1409 14.227 13.7556 13.7738 14.2088C13.3206 14.6621 12.7059 14.9167 12.065 14.9167Z" fill="currentColor"/>
</svg>
