<svg width="31" height="44" viewBox="0 0 31 44" fill="none" xmlns="http://www.w3.org/2000/svg">
<path d="M22.842 21.1852H20.5385C22.3755 19.9994 23.786 18.1878 24.4241 16.0275H25.2242C25.9897 16.0275 26.7075 15.7314 27.2524 15.1872C27.7852 14.6419 28.0795 13.9272 28.0795 13.1756C28.0795 11.603 26.7986 10.3237 25.2242 10.3237H24.8163V7.8793C24.8163 3.53462 21.2775 0 16.9276 0H14.0723C9.72243 0 6.18358 3.53462 6.18358 7.8793V10.3237H5.77569C4.20126 10.3237 2.92042 11.603 2.92042 13.1756C2.92042 13.9271 3.21432 14.6415 3.75442 15.1941C4.29233 15.7317 5.01018 16.0275 5.77571 16.0275H6.57657C7.21755 18.19 8.6277 20.0004 10.4625 21.1852H8.15789C3.65977 21.1852 0 24.8406 0 29.3333V40.7407C0 42.5385 1.46329 44 3.26316 44H27.7368C29.5367 44 31 42.5385 31 40.7407V29.3333C31 24.8406 27.3402 21.1852 22.8421 21.1852L22.842 21.1852ZM25.2242 11.9534C25.899 11.9534 26.4479 12.5016 26.4479 13.1756C26.4479 13.499 26.319 13.8089 26.0917 14.0417C25.8615 14.2713 25.5538 14.3979 25.2242 14.3979H24.7606C24.7966 14.0661 24.8163 13.7264 24.8163 13.3793V11.9534H25.2242ZM14.0726 1.62995H16.9278C20.1014 1.62995 22.728 4.00241 23.129 7.0648H7.87137C8.27235 4.00231 10.8989 1.62995 14.0725 1.62995H14.0726ZM22.3925 8.69443L21.6944 9.64781C21.3844 10.0712 20.8899 10.324 20.3702 10.324H10.6301C10.1108 10.324 9.61583 10.0709 9.30517 9.64781L8.60702 8.69443H22.3925ZM4.91598 14.0486C4.6818 13.8092 4.55288 13.4993 4.55288 13.1755C4.55288 12.5015 5.10171 11.9533 5.77656 11.9533H6.18446V13.3792C6.18446 13.7266 6.20376 14.0671 6.23982 14.3978H5.77656C5.4466 14.3981 5.13887 14.2715 4.91598 14.0486ZM7.99817 15.0252C7.87725 14.5141 7.81571 13.9601 7.81571 13.3792V10.3731L7.9887 10.6092C8.60528 11.4506 9.59222 11.9533 10.6306 11.9533H20.3706C21.4086 11.9533 22.3959 11.451 23.0117 10.6092L23.1854 10.372V13.3789C23.1854 13.9598 23.1243 14.5134 23.0004 15.0383C22.2378 18.5242 19.0839 21.0544 15.5007 21.0544C11.9174 21.0548 8.76309 18.5248 7.9983 15.0252L7.99817 15.0252ZM18.2827 22.2458C18.011 23.555 16.8741 24.5097 15.5003 24.5097C14.1214 24.5097 12.9811 23.5476 12.7157 22.2447C13.6021 22.5258 14.537 22.6844 15.5003 22.6844C16.4628 22.6844 17.397 22.5262 18.2827 22.2458ZM1.63221 29.3335C1.63221 25.7392 4.55992 22.815 8.15853 22.815H11.1718C11.6828 24.7524 13.424 26.1394 15.5006 26.1394C17.5722 26.1394 19.3112 24.7589 19.828 22.815H22.8427C26.4413 22.815 29.3691 25.7392 29.3691 29.3335V35.8521H26.9217V27.7039H4.07958V35.8521H1.63221V29.3335ZM13.8691 29.3335H17.1322V34.5335L15.5006 33.7179L13.8691 34.5335V29.3335ZM3.26379 42.3706C2.36424 42.3706 1.63221 41.6394 1.63221 40.7409V37.4817H4.07958V42.3706H3.26379ZM5.71116 42.3706V29.3335H12.2375V37.1707L15.5006 35.5403L18.7638 37.1707V29.3335H25.2901V42.3706H5.71116ZM29.3691 40.7409C29.3691 41.6394 28.637 42.3706 27.7375 42.3706H26.9217V37.4817H29.3691V40.7409Z" fill="black"/>
</svg>
