<svg width="21" height="25" viewBox="0 0 21 25" fill="none" xmlns="http://www.w3.org/2000/svg">
<path d="M9.92727 18.8439L9.31038 21.8877L11.337 20.2118L11.0727 18.878L11.9244 17.7153C11.9537 17.6812 11.9537 17.6127 11.9537 17.5786L11.3956 16.1082C11.3663 16.0741 11.3368 16.0397 11.3075 16.0397L9.69224 16.0395C9.66295 16.0395 9.60415 16.0736 9.60415 16.1079L9.07558 17.5784C9.04628 17.6125 9.07558 17.681 9.10488 17.7151L9.92727 18.8439Z" fill="currentColor"/>
<path d="M10.5146 0C7.28374 0 4.66986 3.04375 4.66986 6.8057C4.66986 10.5678 7.28385 13.6114 10.5146 13.6114C13.7454 13.6114 16.3594 10.5676 16.3594 6.8057C16.3594 3.04363 13.7454 0 10.5146 0ZM10.5146 12.0724C8.01801 12.0724 5.96212 9.71259 5.96212 6.77144C5.96212 6.32677 6.02092 5.88231 6.10901 5.47179C6.63758 5.77954 7.60686 6.22418 8.69368 6.22418C9.48674 6.22418 10.3384 5.98467 11.1608 5.33506C11.2489 5.26659 13.2462 3.59095 14.8321 5.26659C14.9495 5.74537 15.0378 6.25825 15.0378 6.77143C15.0378 9.71283 13.0112 12.0724 10.5146 12.0724Z" fill="currentColor"/>
<path d="M12.3357 24.9998L12.0419 23.5634L10.2798 24.9998H12.3357Z" fill="currentColor"/>
<path d="M9.07541 24.9998L11.8656 22.7085L11.5132 21.0669L9.07542 23.0846L8.66425 24.9998L9.07541 24.9998Z" fill="currentColor"/>
<path d="M21 24.9998V21.922C21 18.6387 18.7384 16.0055 15.919 16.0055H15.7721L13.4224 25L21 24.9998Z" fill="currentColor"/>
<path d="M7.5482 24.9998L5.31608 16.0054H5.11039C2.26143 16.0056 0 18.6388 0 21.922V24.9999L7.5482 24.9998Z" fill="currentColor"/>
</svg>
