<svg width="43" height="40" viewBox="0 0 43 40" fill="none" xmlns="http://www.w3.org/2000/svg">
<path d="M18.4404 0C15.3494 0 12.964 1.37792 11.5141 3.56996C10.3571 5.31941 9.76012 7.5384 9.56049 9.99606H8.46537C7.96953 10.0233 7.5428 10.5017 7.56988 11.0001C7.59699 11.4984 8.073 11.9274 8.56887 11.8999H9.47164C9.48651 14.7496 11.2144 17.5447 12.3131 19.7241C12.3131 20.3297 12.3174 20.8155 12.328 21.286C10.5691 22.1964 8.57418 22.8976 6.71906 23.7702C4.71118 24.7145 2.82771 25.9692 1.98308 28.1733C0.962005 30.458 0.0159093 34.5289 0 37.1279C0.000330541 37.4769 0.208581 37.8175 0.517992 37.9756C1.50208 38.2671 2.58992 38.6138 3.40384 38.7642C4.66626 38.9933 6.21496 39.1938 7.90278 39.3741C11.2789 39.7347 15.2254 39.984 18.5138 39.984C21.79 39.984 25.7055 39.7347 29.0664 39.3741C30.7466 39.1938 32.2788 38.9936 33.5359 38.7642C34.793 38.5347 35.7325 38.3222 36.4217 37.9756C36.7311 37.8175 36.9394 37.4766 36.9397 37.1279C36.9397 33.7224 36.4121 31.5711 34.9861 28.2183C34.9805 28.2031 34.9772 28.1888 34.9712 28.1735H34.9563C34.6982 27.4995 34.3458 26.9184 33.9204 26.4035L34.5865 25.7341L39.929 31.119L40.6097 30.4496L41.9415 29.0959L36.584 23.7111L37.9307 22.3723C38.138 22.1768 38.2504 21.8836 38.2266 21.5987L39.9286 20.3493C40.9332 21.359 41.2697 21.6861 40.9349 23.3687C42.6092 21.0126 43.2809 19.6726 41.9266 18.3113L37.9307 14.2951L35.9179 16.3032L37.9307 18.3262L36.7023 20.0518C36.3893 20.0186 36.1275 20.2211 35.9179 20.3493L34.5861 21.688L34.2307 21.346L35.2076 18.0885L32.8398 15.2324L29.9983 16.1843L31.8927 18.5643L31.419 20.4681L29.0513 20.9442L27.1568 19.0404L26.2098 21.4204L26.9942 22.3723C26.1813 22.029 25.3804 21.6783 24.6264 21.2866V19.7247C25.5883 18.0826 27.4828 14.7506 27.4679 11.9005H28.4596C28.9601 11.9078 29.4203 11.4516 29.4203 10.9486C29.4203 10.4456 28.9601 9.98937 28.4596 9.99668H27.3793C27.178 7.53799 26.5754 5.32139 25.4108 3.57058C23.9524 1.37786 21.5581 0.000617364 18.4402 0.000617364L18.4404 0ZM11.3664 11.8999C15.6435 11.8936 21.3266 11.8936 25.5891 11.8936C25.6185 13.7087 24.4751 15.8298 23.1767 18.4C21.8537 20.4077 19.9061 21.8896 18.4705 21.8956C16.5909 21.8893 14.6964 19.9857 13.6013 18.0875C12.3921 15.68 11.4 13.6705 11.3667 11.8995L11.3664 11.8999ZM14.2377 21.7768C14.9322 22.4059 15.7632 22.9953 16.5463 23.3536L16.2947 23.7404C16.0524 24.1036 16.1046 24.6365 16.4131 24.9453L16.9459 25.4809L16.3836 27.1765L13.1723 23.0116C13.8092 22.7968 14.2231 22.3658 14.238 21.7771L14.2377 21.7768ZM22.7331 21.8661C22.8249 22.5162 23.2788 22.7486 23.769 22.9963L20.2614 27.5182L19.5954 25.4801L20.1282 24.9446C20.4366 24.6361 20.4889 24.1029 20.2466 23.7396L20.0985 23.5165C21.1133 23.0786 22.0462 22.4866 22.7327 21.8657L22.7331 21.8661ZM32.1602 23.2941L32.5747 23.7105L31.7311 24.5585C31.2709 24.2779 30.7853 24.0329 30.2954 23.7998L32.1602 23.2941ZM25.53 23.8297C26.8999 24.425 28.2552 24.938 29.4373 25.4959C29.7563 25.6463 30.0528 25.7993 30.3401 25.957L27.5428 28.7683C26.7472 30.034 28.7782 31.5218 29.5556 30.7764L32.5746 27.742C32.8374 28.086 33.0526 28.4632 33.211 28.8876C34.5875 30.9342 34.9514 34.2286 35.0165 36.4143C34.5987 36.5551 34.1101 36.7238 33.1961 36.8904C32.0067 37.1076 30.5067 37.3088 28.8598 37.4854C25.5664 37.8387 21.6985 38.0804 18.5145 38.0804C15.318 38.0804 11.42 37.8387 8.11 37.4854C6.45517 37.3088 4.93888 37.1076 3.74425 36.8904C2.82625 36.7238 2.34237 36.5551 1.92382 36.4143C2.11786 33.446 2.87618 30.915 3.72935 28.8876C4.31577 27.3161 5.66183 26.3691 7.51797 25.4963C8.69678 24.9418 10.0461 24.4357 11.4103 23.8451L17.7148 31.9963C18.0675 32.4515 18.8569 32.4515 19.2096 31.9963L25.53 23.8297Z" fill="black"/>
</svg>
