<svg width="29" height="29" viewBox="0 0 29 29" fill="none" xmlns="http://www.w3.org/2000/svg">
<path d="M14.5154 0.752594C22.1167 0.752594 28.2783 6.91423 28.2783 14.5155C28.2783 22.1167 22.1167 28.2783 14.5154 28.2783C6.9142 28.2783 0.752563 22.1167 0.752563 14.5155C0.752563 6.91423 6.9142 0.752594 14.5154 0.752594ZM14.5154 3.50517C11.5953 3.50517 8.79481 4.66518 6.72998 6.73001C4.66515 8.79484 3.50514 11.5953 3.50514 14.5155C3.50514 17.4356 4.66515 20.2361 6.72998 22.3009C8.79481 24.3657 11.5953 25.5257 14.5154 25.5257C17.4355 25.5257 20.236 24.3657 22.3009 22.3009C24.3657 20.2361 25.5257 17.4356 25.5257 14.5155C25.5257 11.5953 24.3657 8.79484 22.3009 6.73001C20.236 4.66518 17.4355 3.50517 14.5154 3.50517ZM14.5154 4.88145C15.9165 4.88145 17.2474 5.18011 18.4489 5.71824L16.2977 7.86799C14.8341 7.47484 13.2817 7.57584 11.8813 8.15529C10.481 8.73475 9.31114 9.76026 8.5533 11.0726C7.79545 12.385 7.49203 13.9109 7.69013 15.4134C7.88823 16.9158 8.57677 18.3109 9.64888 19.382L7.70281 21.3281L7.48811 21.1065C6.20242 19.7359 5.34568 18.0191 5.02338 16.1677C4.70109 14.3163 4.92732 12.411 5.67421 10.6865C6.42111 8.96206 7.65605 7.49368 9.22697 6.46223C10.7979 5.43078 12.6362 4.8813 14.5154 4.88145ZM23.3127 10.5834C23.8494 11.7835 24.1494 13.1158 24.1494 14.5155C24.1509 15.7808 23.9024 17.0341 23.4182 18.2032C22.934 19.3723 22.2237 20.4342 21.328 21.3281L19.382 19.382C20.2374 18.5283 20.8524 17.4641 21.1651 16.2967C21.4778 15.1293 21.477 13.9001 21.1629 12.7332L23.3127 10.5834ZM20.3536 6.72981L22.3011 8.67587L17.1758 13.8039C17.2844 14.2118 17.2978 14.6391 17.215 15.053C17.1323 15.4669 16.9555 15.8562 16.6984 16.1909C16.4414 16.5257 16.1108 16.7969 15.7323 16.9836C15.3538 17.1704 14.9375 17.2677 14.5154 17.268C14.1241 17.2673 13.7374 17.1832 13.3812 17.0212C13.0249 16.8592 12.7073 16.6231 12.4495 16.3287C12.1917 16.0342 11.9997 15.6882 11.8862 15.3137C11.7727 14.9391 11.7404 14.5447 11.7914 14.1567C11.8424 13.7687 11.9756 13.396 12.182 13.0636C12.3884 12.7311 12.6633 12.4465 12.9885 12.2286C13.3136 12.0108 13.6814 11.8648 14.0674 11.8004C14.4534 11.736 14.8487 11.7547 15.227 11.8551L20.3536 6.72981Z" fill="currentColor"/>
</svg>
