<svg width="43" height="52" viewBox="0 0 43 52" fill="none" xmlns="http://www.w3.org/2000/svg">
<g filter="url(#filter0_d_631_192)">
<path d="M38.9681 43.0787L36.9443 36.5136C35.9684 33.347 33.2484 30.9753 30.015 30.4706L26.4003 29.9073V29.172C28.7559 27.7859 30.494 25.4398 31.0806 22.6607C32.7815 22.4203 34.1003 20.9512 34.1003 19.1614V14.1937C34.1003 8.25022 29.8359 3.30935 24.2483 2.32067C24.0068 1.00271 22.8693 0 21.5002 0C20.1311 0 18.9936 1.00271 18.752 2.32067C13.1646 3.30919 8.90011 8.24989 8.90011 14.1937V19.1614C8.90011 20.9511 10.2188 22.4202 11.9198 22.6607C12.5063 25.4399 14.2445 27.7859 16.6001 29.172V29.9073L12.9854 30.4709C9.75194 30.9756 7.03132 33.3473 6.05605 36.5139L4.0323 43.079C3.96512 43.2948 4.00418 43.5289 4.13605 43.7114C4.26824 43.8929 4.47761 44 4.70011 44H38.2999C38.5224 44 38.7318 43.8929 38.8639 43.7111C38.9958 43.5289 39.0349 43.2944 38.9677 43.0787H38.9681ZM25.4954 39.2401L25.0004 38.7386V37.7492L26.1741 34.7742H26.6263L27.8004 37.7492V38.7386L27.3054 39.2404C27.1738 39.3729 27.1004 39.5531 27.1004 39.742V42.5807H25.7004V39.742C25.7004 39.5531 25.6269 39.3729 25.4954 39.2401ZM29.1506 37.3496L27.7506 33.8013C27.6434 33.5317 27.3866 33.3549 27.1003 33.3549H25.7003C25.4141 33.3549 25.1572 33.5317 25.05 33.8013L23.65 37.3496C23.6172 37.4333 23.6003 37.5229 23.6003 37.6129V39.0323C23.6003 39.2211 23.6738 39.4014 23.8053 39.5341L24.3003 40.0356V42.5806H20.8004V41.455L21.9954 40.2434C22.127 40.111 22.2004 39.9307 22.2004 39.7419V36.9032C22.2004 36.6662 22.0835 36.4448 21.8888 36.3127L19.7888 34.8933C19.5738 34.7485 19.2976 34.7343 19.0707 34.8578C18.8426 34.9814 18.7004 35.2218 18.7004 35.4839V37.6129H17.3004V35.4839C17.3004 35.2218 17.1582 34.9814 16.9307 34.8578C16.7039 34.7343 16.4267 34.7485 16.2126 34.8933L14.1126 36.3127C13.9173 36.4448 13.8004 36.6662 13.8004 36.9032V39.7419C13.8004 39.9307 13.8739 40.111 14.0054 40.2437L15.2005 41.455V42.5806H11.7936L12.3874 37.7713L14.3864 31.6894L16.8426 31.306C17.3929 32.4975 18.8042 34.0646 21.5004 34.0646C24.1966 34.0646 25.6079 32.4976 26.1582 31.3054L29.3523 31.8034L31.3136 37.7703L31.9073 42.5806H28.5005V40.0356L28.9954 39.5338C29.127 39.4013 29.2004 39.2211 29.2004 39.0322V37.6129C29.2004 37.5229 29.1836 37.4333 29.1508 37.3496L29.1506 37.3496ZM16.3955 40.6595L15.2005 39.4482V37.2831L15.9005 36.8098V38.3226C15.9005 38.7151 16.2133 39.0323 16.6005 39.0323H19.4004C19.7876 39.0323 20.1004 38.7151 20.1004 38.3226V36.8095L20.8004 37.2828V39.4479L19.6054 40.6595C19.4738 40.7922 19.4004 40.9725 19.4004 41.1613V42.5807H16.6004V41.1613C16.6004 40.9725 16.527 40.7922 16.3954 40.6595H16.3955ZM10.3005 14.9036H11.7005V15.6849C11.1805 15.7926 10.7092 16.027 10.3005 16.3407V14.9036ZM29.8444 14.9036C29.5028 17.3067 27.4637 19.1616 25.0003 19.1616H18.0004C15.5369 19.1616 13.4979 17.3067 13.1563 14.9036H29.8444ZM32.7003 16.3414C32.2915 16.0277 31.8203 15.7926 31.3003 15.6855V14.9036H32.7003V16.3414ZM31.2709 21.1693C31.2822 20.9735 31.3003 20.7796 31.3003 20.581V17.1631C32.1131 17.4568 32.7003 18.2375 32.7003 19.1616C32.7003 20.0962 32.099 20.8838 31.2709 21.1693ZM32.6647 13.4843H27.0878C27.0822 13.233 27.08 12.9818 27.0653 12.7312C27.0422 12.3402 26.7075 12.0462 26.3241 12.0655C25.9385 12.089 25.6444 12.4254 25.6675 12.817C25.681 13.0385 25.6822 13.2612 25.6872 13.4833L17.3169 13.4836C17.3975 9.91976 18.4803 6.50886 20.4662 3.56522C20.5781 3.56237 20.6878 3.54875 20.8006 3.54875H22.2006C22.3153 3.54875 22.4274 3.56237 22.5415 3.56649C23.8756 5.54441 24.8074 7.73296 25.3031 10.084C25.3731 10.4177 25.6637 10.6455 25.9868 10.6455C26.0353 10.6455 26.085 10.6404 26.1337 10.6299C26.5118 10.5482 26.7531 10.1715 26.6721 9.78748C26.2212 7.64646 25.4325 5.63018 24.3322 3.77018C28.88 4.72382 32.3497 8.67325 32.6649 13.4842L32.6647 13.4843ZM21.5007 1.41981C22.027 1.41981 22.4814 1.7192 22.7201 2.15641C22.5467 2.14849 22.3757 2.12948 22.2007 2.12948H20.8007C20.6257 2.12948 20.4548 2.14849 20.2814 2.15641C20.5201 1.7192 20.9745 1.41981 21.5007 1.41981ZM18.6645 3.77154C16.9252 6.71162 15.9898 10.0338 15.917 13.4839H10.3358C10.6514 8.67527 14.1186 4.72778 18.6645 3.77154ZM10.3006 19.1613C10.3006 18.2374 10.8878 17.4568 11.7006 17.1628V20.5807C11.7006 20.7793 11.7187 20.9732 11.7299 21.169C10.9018 20.8835 10.3006 20.096 10.3006 19.1613ZM13.1006 20.5807V18.1998C14.2562 19.6496 16.0224 20.5807 18.0005 20.5807H25.0005C26.9786 20.5807 28.7449 19.6496 29.9004 18.1998V20.5807C29.9004 25.2765 26.1323 29.0967 21.5005 29.0967C16.8687 29.0967 13.1006 25.2765 13.1006 20.5807ZM21.5005 30.5161C22.7346 30.5161 23.9121 30.274 25.0005 29.8498V30.4125C24.8802 30.7822 24.1442 32.6451 21.5005 32.6451C18.8574 32.6451 18.123 30.7908 18.0005 30.4125V29.8498C19.0889 30.274 20.2664 30.5161 21.5005 30.5161ZM7.3918 36.9364C8.17086 34.4101 10.2815 32.5038 12.8208 31.9617L11.0364 37.3885C11.0217 37.4325 11.0111 37.4785 11.0055 37.5247L10.382 42.5805H5.65207L7.3918 36.9364ZM33.318 42.5805L32.6943 37.5247C32.6887 37.4785 32.679 37.4325 32.6633 37.3885L30.945 32.1626C33.1365 32.8957 34.9084 34.6692 35.6084 36.9363L37.348 42.5805L33.318 42.5805Z" fill="black"/>
</g>
<defs>
<filter id="filter0_d_631_192" x="0" y="0" width="43" height="52" filterUnits="userSpaceOnUse" color-interpolation-filters="sRGB">
<feFlood flood-opacity="0" result="BackgroundImageFix"/>
<feColorMatrix in="SourceAlpha" type="matrix" values="0 0 0 0 0 0 0 0 0 0 0 0 0 0 0 0 0 0 127 0" result="hardAlpha"/>
<feOffset dy="4"/>
<feGaussianBlur stdDeviation="2"/>
<feComposite in2="hardAlpha" operator="out"/>
<feColorMatrix type="matrix" values="0 0 0 0 0 0 0 0 0 0 0 0 0 0 0 0 0 0 0.25 0"/>
<feBlend mode="normal" in2="BackgroundImageFix" result="effect1_dropShadow_631_192"/>
<feBlend mode="normal" in="SourceGraphic" in2="effect1_dropShadow_631_192" result="shape"/>
</filter>
</defs>
</svg>
