<svg width="23" height="22" viewBox="0 0 23 22" fill="none" xmlns="http://www.w3.org/2000/svg">
<path d="M22.125 11.6875L20.875 12.9375L18.3125 10.375L19.5625 9.125C19.691 8.99903 19.8638 8.92847 20.0438 8.92847C20.2237 8.92847 20.3965 8.99903 20.525 9.125L22.125 10.725C22.3875 10.9875 22.3875 11.425 22.125 11.6875ZM10 18.675L17.575 11.1L20.1375 13.6625L12.575 21.25H10V18.675ZM10 12.5C4.475 12.5 0 14.7375 0 17.5V20H7.5V17.6375L12.5 12.6375C11.675 12.5375 10.8375 12.5 10 12.5ZM10 0C8.67392 0 7.40215 0.526784 6.46447 1.46447C5.52678 2.40215 5 3.67392 5 5C5 6.32608 5.52678 7.59785 6.46447 8.53553C7.40215 9.47322 8.67392 10 10 10C11.3261 10 12.5979 9.47322 13.5355 8.53553C14.4732 7.59785 15 6.32608 15 5C15 3.67392 14.4732 2.40215 13.5355 1.46447C12.5979 0.526784 11.3261 0 10 0Z" fill="currentColor"/>
</svg>
